<svg xmlns="http://www.w3.org/2000/svg" xmlns:xlink="http://www.w3.org/1999/xlink" viewBox="0 0 1920 1080" style="opacity: 0.2; filter: blur(0.4rem);"><defs><style>.cls-1,.cls-3,.cls-4,.cls-5,.cls-6,.cls-7{fill:none;}.cls-2{clip-path:url(#clip-path);}.cls-3{stroke:#006894;}.cls-3,.cls-4,.cls-5,.cls-6,.cls-7{stroke-miterlimit:10;stroke-width:14px;}.cls-4{stroke:#68006a;}.cls-5{stroke:#885fff;}.cls-6{stroke:#00baff;}.cls-7{stroke:#321fff;}</style><clipPath id="clip-path"><rect class="cls-1" width="1920" height="1080"/></clipPath></defs><title>morelines</title><g class="cls-2"><line class="cls-3" x1="1265" y1="-91" x2="1987" y2="1473"/><line class="cls-3" x1="788" y1="1515" x2="1265" y2="-91"/><line class="cls-3" x1="-143" y1="1019" x2="1265" y2="-91"/><line class="cls-4" x1="489" y1="-97" x2="-76" y2="982"/><line class="cls-4" x1="418" y1="1204" x2="489" y2="-97"/><line class="cls-4" x1="1258" y1="1328" x2="433" y2="-64"/><line class="cls-4" x1="2061" y1="466" x2="489" y2="-97"/><line class="cls-5" x1="-241" y1="1338" x2="290" y2="-146"/><line class="cls-5" x1="841" y1="-107" x2="-241" y2="1338"/><line class="cls-5" x1="1723" y1="-102" x2="-241" y2="1338"/><line class="cls-5" x1="2124" y1="423" x2="-241" y2="1338"/><line class="cls-6" x1="-56" y1="-72" x2="803" y2="1628"/><line class="cls-6" x1="1957" y1="279" x2="803" y2="1628"/><line class="cls-6" x1="1723" y1="-102" x2="803" y2="1628"/><line class="cls-6" x1="-51" y1="657" x2="803" y2="1628"/><line class="cls-6" x1="549" y1="-144" x2="803" y2="1628"/><line class="cls-7" x1="1920" y1="1419" x2="270" y2="-309"/><line class="cls-7" x1="707" y1="-395" x2="1920" y2="1419"/><line class="cls-7" x1="-138" y1="-29" x2="1920" y2="1419"/><line class="cls-7" x1="1627" y1="-474" x2="1920" y2="1419"/></g></svg>