<?xml version="1.0" encoding="UTF-8" standalone="no"?>
<svg
   width="512"
   height="512"
   viewBox="0 0 512 512"
   version="1.1"
   xml:space="preserve"
   style="clip-rule:evenodd;fill-rule:evenodd;stroke-linejoin:round;stroke-miterlimit:1.41421"
   id="svg38"
   sodipodi:docname="black-and-white-svg.svg"
   inkscape:version="1.1.2 (0a00cf5339, 2022-02-04, custom)"
   xmlns:inkscape="http://www.inkscape.org/namespaces/inkscape"
   xmlns:sodipodi="http://sodipodi.sourceforge.net/DTD/sodipodi-0.dtd"
   xmlns="http://www.w3.org/2000/svg"
   xmlns:svg="http://www.w3.org/2000/svg"><defs
   id="defs42" /><sodipodi:namedview
   id="namedview40"
   pagecolor="#000000"
   bordercolor="#666666"
   borderopacity="1.0"
   inkscape:pageshadow="2"
   inkscape:pageopacity="0"
   inkscape:pagecheckerboard="true"
   showgrid="false"
   inkscape:zoom="1.23202"
   inkscape:cx="273.53452"
   inkscape:cy="243.0967"
   inkscape:window-width="1914"
   inkscape:window-height="1044"
   inkscape:window-x="0"
   inkscape:window-y="30"
   inkscape:window-maximized="1"
   inkscape:current-layer="g36" />
    <g
   id="g36">
        
        
        
        
        
        
        
        
        
        
        
        
        
        
        
        <g
   id="g1505"
   transform="translate(7.27392)"><path
     d="m 463.88354,496.64196 c 0,-8.48576 -96.32679,-15.36268 -215.15746,-15.36268 -118.82951,0 -215.157459,6.87692 -215.157459,15.36268 0,8.47996 96.327949,15.35804 215.157459,15.35804 118.83067,0 215.15746,-6.87808 215.15746,-15.35804 z"
     style="fill:#ffffff;fill-opacity:1;fill-rule:nonzero;stroke:none;stroke-width:1.15909"
     id="path26" /><path
     d="m 318.05054,298.15928 c -23.43116,0 -34.56545,-5.75029 -38.58984,-18.8759 l -0.01,0.0186 c 0,0 -4.74071,-14.97786 -27.65143,-16.27257 0,0 -0.66533,-0.0232 -1.76531,0.0499 -1.09998,-0.0731 -1.76182,-0.0499 -1.76182,-0.0499 -22.90956,1.29471 -27.65027,16.27257 -27.65027,16.27257 l -0.01,-0.0186 c -4.02902,13.12561 -15.15867,18.8759 -38.59446,18.8759 H 152.9907 c -24.75253,0 -32.84418,-9.52083 -32.84418,-27.12984 v -29.98237 h 259.77807 v 29.98237 c 0,17.60901 -8.0905,27.12984 -32.84766,27.12984 z m -67.56727,13.32151 c 10.93377,28.08029 35.67818,39.02449 70.89967,39.02449 h 27.12984 c 51.38974,0 78.99944,-27.12636 78.99944,-79.47584 V 188.70223 H 72.561817 v 82.32721 c 0,52.34948 27.609693,79.47584 78.999443,79.47584 h 27.12983 c 35.2215,0 59.96591,-10.9442 70.89967,-39.02449 z"
     style="fill:#ffffff;fill-opacity:1;fill-rule:nonzero;stroke-width:1.15909"
     id="path30" /><path
     d="m 248.72608,41.786621 c -114.10735,0 -206.939459,92.827489 -206.939459,206.934829 0,114.10271 92.832109,206.93946 206.939459,206.93946 114.10734,0 206.93945,-92.83675 206.93945,-206.93946 0,-114.10734 -92.83211,-206.934829 -206.93945,-206.934829 z m 0,455.660909 C 111.57703,497.44753 0,385.8705 0,248.72145 0,111.57704 111.57703,0 248.72608,0 c 137.14905,0 248.72608,111.57704 248.72608,248.72145 0,137.14905 -111.57703,248.72608 -248.72608,248.72608 z"
     style="fill:#ffffff;fill-opacity:1;fill-rule:nonzero;stroke-width:1.15909"
     id="path32" /></g>
        
    </g>
</svg>
