<svg width="23" height="23" viewBox="0 0 23 23" fill="none" xmlns="http://www.w3.org/2000/svg">
<path d="M16.509 20.7386C17.9619 20.1581 19.2679 19.2817 20.3377 18.1696C22.0596 16.3866 22.968 13.5267 22.968 13.5267C22.9383 13.8305 22.8908 14.1325 22.8256 14.4311C22.7319 14.8798 22.608 15.3221 22.4548 15.7552C22.2907 16.2401 22.0979 16.7155 21.8774 17.179C21.6203 17.7287 21.3163 18.2567 20.9683 18.7576C20.1403 19.8811 19.0887 20.8342 17.8748 21.5612C17.0299 22.031 16.1275 22.3972 15.1887 22.6514C12.3197 23.3924 6.14484 23.2148 2.46433 18.7297C-0.214746 15.4637 -0.0267768 11.7976 0.0226226 11.0969C0.05919 10.5751 0.406265 6.57916 3.84816 3.54337C4.85459 2.65826 6.01093 1.94634 7.2669 1.43861C7.26447 1.1033 7.38569 0.778075 7.60895 0.521103C7.8322 0.264137 8.14293 0.0921773 8.48549 0.0359769C8.82813 -0.0202235 9.18022 0.0429988 9.47898 0.214341C9.77765 0.385687 10.0035 0.653972 10.116 0.97123C10.9653 0.909327 11.6256 0.90561 11.9553 0.934711C12.1503 0.951418 12.3762 0.978656 12.3762 0.978656C12.8064 1.02327 13.231 1.10894 13.6438 1.23432C14.1611 1.37223 14.6547 1.58226 15.1091 1.8577C15.7904 2.28238 15.8725 2.59621 16.8137 3.16326C16.9151 3.22454 16.9991 3.27221 17.053 3.30195L17.4212 3.40716C17.5996 3.45794 17.6945 3.48395 17.776 3.50683C17.9293 3.55018 18.1474 3.61331 18.4214 3.69937C18.3553 3.82687 18.2995 3.93335 18.2585 4.00887C18.1751 4.16486 18.1109 4.28066 18.1109 4.28498C17.8107 4.84641 17.366 5.3239 16.8195 5.67166C16.2729 6.01941 14.424 5.79604 13.6438 5.67166C12.8637 5.54727 10.413 4.89967 8.07655 6.42502C5.26528 8.26046 5.31725 11.5692 5.33523 12.0583C5.35064 12.4904 5.49498 15.1752 7.8321 17.0162C9.55205 18.3707 11.4472 18.4573 12.1215 18.479C12.6309 18.4951 14.6908 18.5112 16.6764 17.179C17.5722 16.583 18.3177 15.8002 18.8577 14.8885C19.3615 14.0149 19.647 13.0399 19.6917 12.041C19.7133 11.3267 19.6047 10.6143 19.3709 9.93621C19.1399 9.34406 18.8323 8.78253 18.4554 8.26479C19.2509 10.6791 18.5196 12.66 18.5196 12.66C18.313 13.219 18.0429 13.9191 17.3847 14.6174C16.5308 15.5224 15.3529 15.9558 14.9122 16.1137C14.5749 16.2317 14.2299 16.3279 13.8793 16.4015C13.6095 16.4546 13.4043 16.477 13.1222 16.5078L13.1095 16.5092C12.8327 16.5417 12.5541 16.5563 12.2755 16.5532C12.2755 16.5532 12.8022 16.4541 13.3071 16.3273C14.3199 16.0644 15.2542 15.5749 16.0342 14.8985C16.4487 14.5339 17.1095 13.9383 17.4899 12.9479C17.7358 12.3077 17.7612 11.7724 17.7843 11.2847L17.7844 11.282C17.8172 10.5077 17.7263 9.73307 17.5149 8.98533C17.3236 8.30469 17.0361 7.65269 16.6604 7.04777L17.0658 7.08864C17.694 7.17174 18.3155 7.29585 18.9263 7.46005C19.5929 7.63956 20.1144 7.78443 20.7226 8.14102C20.9991 8.30318 21.2743 8.46476 21.5567 8.75999C22.0757 9.30416 22.2386 9.90465 22.3264 10.2458C22.6049 11.3248 22.3765 12.2329 22.1981 12.9077C21.9108 13.9941 21.4399 14.7412 21.1076 15.26C20.6268 16.0122 20.0443 16.6992 19.3754 17.3028C17.7337 18.7737 15.9047 19.3704 14.8526 19.6243C13.4283 19.9991 11.9332 20.0488 10.4856 19.7694C9.03799 19.49 7.67774 18.8893 6.51248 18.0147C4.92141 16.9004 4.15028 15.6512 3.80001 14.9722C2.7389 12.9157 2.81333 10.8041 2.85886 9.80563C2.87236 9.51649 2.88778 9.34015 2.88778 9.31718C2.5785 10.3429 2.08713 12.5369 2.88067 15.0607C3.09239 15.7348 3.56135 17.171 4.87654 18.5421C6.37968 20.109 8.10092 20.6636 9.04659 20.9564C10.1327 21.2926 13.164 22.0491 16.509 20.7386Z" fill="url(#paint0_linear_211_32)"/>
<defs>
<linearGradient id="paint0_linear_211_32" x1="11.484" y1="0.0159917" x2="44.88" y2="35.2598" gradientUnits="userSpaceOnUse">
<stop stop-color="white"/>
<stop offset="1" stop-color="white" stop-opacity="0.5"/>
</linearGradient>
</defs>
</svg>
